<svg width="24" height="25" viewBox="0 0 24 25" fill="none" xmlns="http://www.w3.org/2000/svg">
<path fill-rule="evenodd" clip-rule="evenodd" d="M22.8143 13.6747C23.4464 13.874 23.7972 14.548 23.5979 15.1801L23.2988 16.1286L22.8982 17.0959L22.4147 18.0245L21.8522 18.9075L21.2149 19.7381L20.5075 20.51L19.7356 21.2174L18.905 21.8547L18.022 22.4173L17.1398 22.8765C16.552 23.1825 15.8273 22.954 15.5213 22.3662C15.2153 21.7783 15.4438 21.0537 16.0316 20.7477L16.8209 20.3368L17.5271 19.8869L18.1915 19.3771L18.8089 18.8114L19.3746 18.194L19.8844 17.5296L20.3343 16.8234L20.721 16.0806L21.0414 15.307L21.309 14.4584C21.5083 13.8263 22.1822 13.4755 22.8143 13.6747Z" fill="#8B4A63"/>
<path fill-rule="evenodd" clip-rule="evenodd" d="M22.9163 11.3205C22.2693 11.464 21.6285 11.0557 21.4851 10.4087L21.2925 9.53999L21.0407 8.74135L20.7202 7.9677L20.3336 7.22493L19.8836 6.51868L19.3738 5.85433L18.8081 5.23694L18.1907 4.6712L17.5264 4.16143L16.8201 3.7115L16.0773 3.32484L15.3037 3.00438L14.5051 2.75257L13.6875 2.57133L12.8573 2.46203L12.0207 2.4255L11.1841 2.46203L10.3539 2.57133L9.53633 2.75257L8.7377 3.00438L7.96404 3.32484L7.22127 3.7115L6.51502 4.16143L5.85067 4.67121L5.23328 5.23694L4.66754 5.85433L4.15777 6.51868L3.70785 7.22492L3.32117 7.96771L3.00073 8.74134L2.74891 9.54L2.56767 10.3575L2.45837 11.1878L2.42184 12.0244L2.45836 12.8609L2.56767 13.6912L2.74891 14.5087L3.00072 15.3074L3.32117 16.081L3.70784 16.8238L4.15777 17.53L4.66754 18.1944L5.23328 18.8118L5.85067 19.3775L6.51501 19.8873L7.22128 20.3372L7.96404 20.7239L8.73768 21.0443L9.53634 21.2961L10.3539 21.4774L11.1841 21.5867L12.073 21.6255C12.7352 21.6544 13.2485 22.2146 13.2196 22.8767C13.1906 23.5388 12.6305 24.0521 11.9684 24.0232L10.9747 23.9798L9.93672 23.8432L8.91457 23.6166L7.91606 23.3017L6.94879 22.9011L6.02012 22.4176L5.13712 21.8551L4.30651 21.2178L3.53461 20.5104L2.82729 19.7385L2.18993 18.9079L1.6274 18.0249L1.14397 17.0963L0.743313 16.129L0.428483 15.1305L0.201876 14.1083L0.0652197 13.0703L0.0195521 12.0244L0.0652224 10.9784L0.201879 9.94038L0.428483 8.91823L0.743309 7.91972L1.14397 6.95245L1.6274 6.02378L2.18994 5.14078L2.82729 4.31017L3.53461 3.53827L4.30651 2.83095L5.13712 2.19359L6.02012 1.63106L6.94879 1.14763L7.91606 0.746971L8.91457 0.432142L9.93672 0.205538L10.9747 0.0688806L12.0207 0.023213L13.0667 0.0688807L14.1047 0.205537L15.1268 0.432142L16.1253 0.746971L17.0926 1.14763L18.0213 1.63106L18.9043 2.1936L19.7349 2.83095L20.5068 3.53827L21.2141 4.31017L21.8515 5.14078L22.414 6.02378L22.8974 6.95245L23.2981 7.91972L23.6129 8.91823L23.8282 9.88923C23.9716 10.5363 23.5634 11.1771 22.9163 11.3205Z" fill="#9DF2E9"/>
</svg>
